<svg version="1.1" xmlns="http://www.w3.org/2000/svg" viewBox="0 0 1295.0725185571555 631.9168338210122" width="2590.145037114311" height="1263.8336676420245">
  <!-- svg-source:excalidraw -->
  
  <defs>
    <style>
      @font-face {
        font-family: "Virgil";
        src: url("https://excalidraw.com/Virgil.woff2");
      }
      @font-face {
        font-family: "Cascadia";
        src: url("https://excalidraw.com/Cascadia.woff2");
      }
    </style>
  </defs>
  <rect x="0" y="0" width="1295.0725185571555" height="631.9168338210122" fill="#ffffff"></rect><g stroke-linecap="round" transform="translate(373.2940319748998 10) rotate(0 307.8291251470843 44.26281235415274)"><path d="M0.35 0.76 C246.75 2.13, 492.09 2.3, 615.94 0.08 M-0.11 0.27 C184.36 -0.9, 368.39 -0.73, 615.57 -0.17 M614.95 0.73 C614.64 27.37, 617.41 53.14, 614.23 89.59 M616.03 0.58 C616.25 31.8, 616.49 64.04, 615.95 89.39 M616.2 88.14 C369.7 90.28, 124.74 90.36, 0.29 87.76 M615.34 88.22 C373.84 86.76, 132.55 87.01, -0.37 88.84 M-1.29 87.49 C0.53 68.27, 2.08 47.7, 0.21 -0.26 M-0.96 88.13 C-1 56.41, 0.21 23.88, -0.4 -0.42" stroke="#000000" stroke-width="1" fill="none"></path></g><g stroke-linecap="round" transform="translate(241.1563964455222 258.7280378386958) rotate(0 158.8204983856789 42.135937556681085)"><path d="M0.04 0 C112.37 -0.48, 222.58 -1.62, 318.96 0.29 M-0.15 0.4 C102.62 0.03, 206.22 -0.66, 317.18 -0.06 M316.96 -0.94 C317.79 27.2, 319.26 51.81, 316.5 83.66 M317.59 -0.74 C316.97 23.54, 316.97 46.15, 316.91 84.42 M317.55 84.99 C252.47 83.76, 191 85.37, 1.4 84.36 M318.18 83.98 C232.64 85.36, 147.2 85.02, -0.06 84.1 M-0.9 85.92 C1.15 52.25, -1.11 22.12, -0.2 -1.09 M-0.27 83.44 C-0.21 66.48, -0.54 48.11, 0.53 0.53" stroke="#000000" stroke-width="1" fill="none"></path></g><g stroke-linecap="round" transform="translate(816.921897445968 254.27766309971526) rotate(0 158.8204983856789 42.135937556681085)"><path d="M0.44 -0.72 C115.84 -0.47, 231.56 0.6, 318.5 1.03 M0.62 -0.57 C103.37 -2.32, 207.03 -2.23, 317.01 0.14 M317.55 -0.09 C316.67 20.23, 318.48 44.16, 318.94 83.93 M318.32 -1 C317.34 27.51, 317.58 56.3, 318.09 83.84 M317.32 84.69 C198.49 84.46, 77.33 84.12, 1.04 85.43 M317.73 84.91 C224.79 85.85, 132.08 86.05, 0.4 84.79 M-0.51 83.01 C-0.2 64.76, 1.28 46.35, 0.97 0.75 M0.09 85.15 C0.95 54.77, -0.16 23.81, -0.91 -0.27" stroke="#000000" stroke-width="1" fill="none"></path></g><g stroke-linecap="round" transform="translate(10 537.64495870765) rotate(0 158.8204983856789 42.135937556681085)"><path d="M0.4 1.04 C65.3 -2.82, 132.2 -1.86, 316.74 0.37 M0.64 0.61 C119.08 0.16, 236.43 1.35, 317.3 -0.25 M316.43 1.03 C317.51 22.34, 316.58 46, 316.92 83.79 M316.8 0.89 C316.73 22.19, 316.42 46.61, 317.91 85.16 M319.03 85.03 C213.93 85.46, 110.61 85.24, -0.45 84.32 M318.31 84.17 C206.67 83.52, 94.37 83.03, 0.13 84.71 M1.67 86.14 C-1.38 56.35, -1.37 26.53, -0.3 -0.9 M-0.39 84.72 C0.58 51.78, 0.48 18.63, 0.87 0.57" stroke="#000000" stroke-width="1" fill="none"></path></g><g stroke-linecap="round" transform="translate(502.3881318240417 537.4677191411938) rotate(0 158.8204983856789 42.135937556681085)"><path d="M1.19 0.12 C95.43 0.46, 189.44 1.92, 317.54 0.79 M-0.26 -0.15 C70.34 -1.14, 139.89 -1.37, 317.78 -0.15 M319.05 1.84 C317.64 23.67, 318.01 47.23, 317.84 85.75 M318.12 0.72 C316.52 27.25, 316.48 54.78, 317.41 85.1 M318.13 83.33 C236.29 84.1, 156.37 83.09, -0.17 84.02 M316.95 84.11 C240.01 84.67, 164.21 84.79, -0.03 84.73 M-0.83 83.49 C-1.9 51.89, -1.08 22.45, -1.58 -1.2 M0.03 83.98 C-0.96 58.41, 0.39 33.39, -0.21 0.6" stroke="#000000" stroke-width="1" fill="none"></path></g><g stroke-linecap="round" transform="translate(967.4315217857976 538.7803996802584) rotate(0 158.8204983856789 40)"><path d="M0.25 1.15 C64.56 1.94, 129.04 3.05, 317.5 -1.09 M-0.31 -0.41 C82.6 1.66, 163.95 2.24, 317.77 -0.02 M316.97 1.09 C317.74 23.79, 318.6 50.22, 316.75 80.85 M318.55 -1 C319.29 23.72, 317.69 47.62, 317.36 79.95 M317.42 80.6 C246.43 80.51, 173.49 80.59, -1.01 80.32 M317.06 79.48 C217.78 81.14, 118.79 81.49, 0.36 80.64 M1.3 78.4 C0.18 50.23, -0.51 16.96, 0.88 -0.18 M0.62 80.69 C0.97 58.4, 1.13 37.51, -0.69 -0.85" stroke="#000000" stroke-width="1" fill="none"></path></g><g stroke-linecap="round"><g transform="translate(668.7966991486167 98.34838514184952) rotate(0 -0.3365089113358408 42.541829003520114)"><path d="M-1.14 0.2 C-1.09 14.5, -0.27 71.63, -0.09 85.83 M0.47 -0.74 C0.38 13.22, -0.86 69.51, -1.08 84.11" stroke="#000000" stroke-width="1" fill="none"></path></g></g><g stroke-linecap="round"><g transform="translate(669.9376788576769 177.80155954219003) rotate(0 -110.27095465137307 0.018967819597193625)"><path d="M0.61 -1.12 C-36.12 -0.85, -183.67 1.01, -220.77 1.15 M-0.52 0.91 C-37.29 0.9, -184.11 -0.39, -221.16 -0.39" stroke="#000000" stroke-width="1" fill="none"></path></g></g><g stroke-linecap="round"><g transform="translate(449.56797165193643 178.38312686962365) rotate(0 -0.2071641322601181 39.74670825273567)"><path d="M1.12 0.62 C1.22 13.96, -0.09 66.79, -0.33 79.59 M0.24 -0.1 C0.23 12.96, -1.28 64.96, -1.54 78" stroke="#000000" stroke-width="1" fill="none"></path></g></g><g stroke-linecap="round"><g transform="translate(890.5649373084237 177.5606245065389) rotate(0 -110.8641227319992 -0.3990140597958316)"><path d="M0.51 0.18 C-36.43 0.41, -184.24 0.41, -221.48 0.53 M-0.68 -0.78 C-37.76 -0.83, -185.59 -1.3, -222.24 -1.33" stroke="#000000" stroke-width="1" fill="none"></path></g></g><g stroke-linecap="round"><g transform="translate(894.4558996657773 177.96772163574246) rotate(0 -0.1983320796452972 38.79379249829637)"><path d="M0.33 -1.13 C0.49 11.92, 0.6 64.2, 0.53 77.66 M-0.95 0.9 C-0.89 14.12, -0.23 65.89, -0.23 78.71" stroke="#000000" stroke-width="1" fill="none"></path></g></g><g stroke-linecap="round"><g transform="translate(397.110598717421 344.2295124443462) rotate(0 -0.8553156621871381 44.414758647131606)"><path d="M-0.03 -0.07 C-0.06 14.7, -0.77 74.04, -0.93 88.83 M-1.51 -1.16 C-1.59 13.74, -1.65 74.88, -1.68 89.99" stroke="#000000" stroke-width="1" fill="none"></path></g></g><g stroke-linecap="round"><g transform="translate(147.45759189128307 442.71932402934834) rotate(0 476.4228909892544 -0.40523684241046)"><path d="M-0.43 0.35 C158.55 0.59, 794.4 0.41, 953.28 0.55 M1.54 -0.51 C160.48 -0.56, 794.21 -1.34, 952.66 -1.36" stroke="#000000" stroke-width="1" fill="none"></path></g></g><g stroke-linecap="round"><g transform="translate(669.7216681360587 445.03451586617945) rotate(0 -0.7855437754193986 46.24667672763502)"><path d="M-0.38 -1.18 C-0.91 14.27, -2.11 78.16, -2.54 93.67 M1.61 0.82 C0.93 15.87, -2.3 76.78, -3.19 92.1" stroke="#000000" stroke-width="1" fill="none"></path></g></g><g stroke-linecap="round"><g transform="translate(151.27932004298987 442.7137852928966) rotate(0 0.535480251526451 46.070637459352156)"><path d="M-0.45 -0.57 C-0.43 14.81, 1.24 75.94, 1.32 91.12 M1.52 1.74 C1.29 17.44, 0.29 77.74, 0.42 92.71" stroke="#000000" stroke-width="1" fill="none"></path></g></g><g stroke-linecap="round"><g transform="translate(1098.3644821369194 440.9413896283368) rotate(0 0.4323956455593816 48.99139496552283)"><path d="M-1.09 0.21 C-0.78 16.59, 1.59 81.1, 1.95 97.49 M0.54 -0.73 C0.73 15.88, 1.39 82.53, 1.33 98.71" stroke="#000000" stroke-width="1" fill="none"></path></g></g><g transform="translate(637.623157121984 36.76281235415274) rotate(0 43.5 17.5)"><text x="43.5" y="25" font-family="Virgil, Segoe UI Emoji" font-size="28px" fill="#000000" text-anchor="middle" style="white-space: pre;" direction="ltr">TODO</text></g><g transform="translate(309.4768948312011 283.3639753953769) rotate(0 90.5 17.5)"><text x="90.5" y="25" font-family="Virgil, Segoe UI Emoji" font-size="28px" fill="#000000" text-anchor="middle" style="white-space: pre;" direction="ltr">TODO.Server</text></g><g transform="translate(894.1457304244792 281.55963766440306) rotate(0 87.5 17.5)"><text x="0" y="25" font-family="Virgil, Segoe UI Emoji" font-size="28px" fill="#000000" text-anchor="start" style="white-space: pre;" direction="ltr">TODO.Cache</text></g><g transform="translate(102.32049838567889 562.280896264331) rotate(0 66.5 17.5)"><text x="66.5" y="25" font-family="Virgil, Segoe UI Emoji" font-size="28px" fill="#000000" text-anchor="middle" style="white-space: pre;" direction="ltr">Todo.List</text></g><g transform="translate(596.3223326774801 565.2758736687977) rotate(0 66.5 17.5)"><text x="0" y="25" font-family="Virgil, Segoe UI Emoji" font-size="28px" fill="#000000" text-anchor="start" style="white-space: pre;" direction="ltr">Todo.List</text></g><g transform="translate(1070.116926232999 566.3993089969053) rotate(0 66.5 17.5)"><text x="0" y="25" font-family="Virgil, Segoe UI Emoji" font-size="28px" fill="#000000" text-anchor="start" style="white-space: pre;" direction="ltr">Todo.List</text></g></svg>